<svg width="16" height="16" viewBox="0 0 16 16" fill="none" xmlns="http://www.w3.org/2000/svg">
<path d="M11.0001 1H9.07007V7H11.0001V1Z" fill="white"/>
<path d="M6.93012 1H5.00012V7H6.93012V1Z" fill="white"/>
<path d="M12.2501 5.99995H3.75007C3.6512 5.9986 3.55307 6.01708 3.46147 6.0543C3.36987 6.09151 3.28665 6.14671 3.21674 6.21662C3.14683 6.28653 3.09163 6.36975 3.05442 6.46135C3.0172 6.55295 2.99872 6.65108 3.00007 6.74995V14.2499C2.99872 14.3488 3.0172 14.4469 3.05442 14.5385C3.09163 14.6301 3.14683 14.7134 3.21674 14.7833C3.28665 14.8532 3.36987 14.9084 3.46147 14.9456C3.55307 14.9828 3.6512 15.0013 3.75007 14.9999H12.2501C12.3489 15.0013 12.4471 14.9828 12.5387 14.9456C12.6303 14.9084 12.7135 14.8532 12.7834 14.7833C12.8533 14.7134 12.9085 14.6301 12.9457 14.5385C12.9829 14.4469 13.0014 14.3488 13.0001 14.2499V6.74995C13.0014 6.65108 12.9829 6.55295 12.9457 6.46135C12.9085 6.36975 12.8533 6.28653 12.7834 6.21662C12.7135 6.14671 12.6303 6.09151 12.5387 6.0543C12.4471 6.01708 12.3489 5.9986 12.2501 5.99995ZM6.33007 12.9999H5.00007L8.00007 7.99995L11.0001 12.9999H6.33007Z" fill="white"/>
<path opacity="0.5" d="M6.33012 13H11.0001L8.00012 8L5.00012 13H6.33012Z" fill="white"/>
</svg>
